<?xml version="1.0" standalone="no"?>
<!DOCTYPE svg PUBLIC "-//W3C//DTD SVG 20010904//EN"
 "http://www.w3.org/TR/2001/REC-SVG-20010904/DTD/svg10.dtd">
<svg version="1.0" xmlns="http://www.w3.org/2000/svg"
 width="124.000000pt" height="136.000000pt" viewBox="0 0 124.000000 136.000000"
 preserveAspectRatio="xMidYMid meet">
 <metadata>
    Created by potrace 1.10, written by Peter Selinger 2001-2011
  </metadata>
  <defs>
   <filter id="glow-effect" x="-50%" y="-50%" width="200%" height="200%">
      <feGaussianBlur in="SourceGraphic" stdDeviation="4" result="blur"/>
      <feFlood flood-color="#FFFAE4" result="color"/>
      <feComposite in="color" in2="blur" operator="in" result="glow"/>
      <feMerge>
        <feMergeNode in="glow"/>
        <feMergeNode in="SourceGraphic"/>
      </feMerge>
    </filter>
  </defs>
  <g transform="translate(.133000,420.000000) scale(0.114000,-0.114000)" fill="#FFFAE4" stroke="none" filter="url(#glow-effect)">
<path d="M579 1158 l-34 -73 -3 -287 c-3 -256 -5 -287 -20 -293 -10 -4 -21 1
-29 12 -33 48 -50 54 -78 27 -22 -22 -15 -57 13 -69 20 -8 23 -15 18 -44 -7
-48 -32 -73 -57 -58 -25 16 -53 -1 -57 -36 -4 -32 28 -53 57 -37 16 8 23 5 40
-16 28 -36 27 -68 -4 -88 -14 -9 -25 -25 -25 -35 0 -45 67 -55 85 -13 8 18 15
22 35 17 51 -13 69 -32 63 -68 -3 -23 0 -37 11 -46 21 -17 66 -6 67 17 2 23 2
24 -6 44 -7 18 22 42 65 53 20 5 27 1 35 -17 18 -42 85 -32 85 13 0 10 -11 26
-25 35 -22 14 -25 22 -19 48 8 40 34 70 48 56 27 -27 79 11 69 51 -7 24 -48
36 -68 19 -12 -10 -18 -6 -35 22 -23 38 -26 78 -6 78 39 0 46 72 7 85 -26 8
-47 -2 -59 -30 -8 -17 -17 -22 -31 -18 -19 5 -20 15 -23 292 l-3 286 -34 73
c-19 39 -37 72 -41 72 -4 0 -22 -33 -41 -72z m56 5 c0 -6 4 -15 8 -20 33 -32
37 -77 35 -352 l-2 -276 -6 260 c-4 223 -8 265 -23 293 -10 17 -22 32 -27 32
-5 0 -17 -15 -27 -32 -15 -28 -19 -70 -24 -293 l-5 -260 1 290 c1 284 1 291
24 333 21 39 46 52 46 25z m4 -114 c7 -19 11 -110 11 -224 l0 -192 -30 -1 -30
-1 0 193 c0 180 9 256 30 256 4 0 13 -14 19 -31z m6 -459 c0 -18 -6 -26 -23
-28 -13 -2 -25 3 -28 12 -10 26 4 48 28 44 17 -2 23 -10 23 -28z m3 -63 c2
-10 -3 -17 -12 -17 -10 0 -16 9 -16 21 0 24 23 21 28 -4z m-180 -11 c4 -21
-14 -37 -35 -29 -14 5 -18 35 -6 47 12 12 38 1 41 -18z m350 -2 c3 -22 -21
-39 -39 -28 -11 6 -12 38 -2 48 13 13 38 1 41 -20z m-287 -57 c-7 -7 -16 -5
-31 8 -11 10 -20 13 -20 7 0 -6 7 -15 16 -20 14 -8 13 -12 -5 -43 -12 -19 -21
-42 -21 -51 0 -13 -8 -18 -31 -18 l-31 0 26 31 c17 19 26 43 26 64 0 36 13 51
50 57 27 3 39 -17 21 -35z m237 20 c6 -5 12 -24 12 -41 0 -17 9 -42 20 -56 25
-32 25 -38 -2 -33 -15 3 -31 21 -45 51 -21 44 -21 47 -5 67 17 20 17 20 -5 2
-24 -21 -43 -15 -43 12 0 14 6 17 28 13 15 -2 33 -9 40 -15z m-78 -25 c77 -48
87 -159 19 -216 -102 -86 -253 7 -219 135 24 90 122 130 200 81z m-292 -115
c2 -9 -4 -20 -13 -23 -20 -8 -50 19 -40 36 10 17 49 8 53 -13z m496 14 c10
-16 -5 -41 -24 -41 -23 0 -34 16 -26 35 6 16 42 20 50 6z m-415 -60 c13 -45
60 -89 102 -98 26 -5 29 -10 29 -42 0 -36 -1 -36 -18 -15 -22 28 -54 44 -86
44 -30 0 -32 7 -9 32 10 11 12 18 4 18 -6 0 -14 -7 -17 -15 -11 -27 -24 -16
-24 19 0 22 -9 45 -26 65 l-26 31 30 0 c25 0 30 -5 41 -39z m327 8 c-17 -20
-26 -43 -26 -65 0 -38 -5 -41 -30 -19 -16 15 -16 18 1 53 11 20 19 42 19 49 0
8 12 13 31 13 l31 0 -26 -31z m-46 -111 c0 -4 -11 -8 -25 -8 -33 0 -81 -25
-89 -45 -10 -26 -23 -8 -18 25 3 19 10 30 21 30 9 0 30 8 46 19 27 17 32 17
48 3 9 -8 17 -19 17 -24z m-292 -22 c4 -21 -14 -37 -34 -29 -11 4 -12 18 -5
51 3 12 36 -7 39 -22z m350 -2 c2 -17 -2 -21 -22 -21 -18 0 -26 5 -26 17 0 36
43 40 48 4z m-174 -71 c8 -21 -6 -36 -30 -31 -18 3 -25 23 -17 41 7 14 41 7
47 -10z"/>
<path d="M550 430 c-19 -14 -22 -22 -13 -31 8 -8 14 -6 22 10 14 25 51 28 51
5 0 -35 -62 -59 -74 -28 -16 41 -41 -34 -27 -82 5 -16 14 -28 20 -26 7 1 10
-2 7 -7 -10 -15 44 -51 76 -51 42 0 100 29 94 47 -3 8 -2 12 3 9 14 -9 31 51
24 85 -7 35 -21 47 -29 25 -12 -31 -74 -7 -74 28 0 23 37 20 51 -5 8 -16 14
-18 22 -10 9 9 6 17 -13 31 -34 26 -106 26 -140 0z m105 -80 c4 -12 1 -27 -5
-35 -27 -33 -78 -5 -65 35 4 14 15 20 35 20 20 0 31 -6 35 -20z m-87 -15 c0
-17 -6 -25 -19 -25 -10 0 -21 5 -24 10 -11 17 3 40 23 40 14 0 20 -7 20 -25z
m147 0 c0 -13 -8 -21 -21 -23 -17 -2 -21 2 -21 23 0 21 4 25 21 23 13 -2 21
-10 21 -23z m-124 -45 c27 -15 24 -40 -4 -40 -16 0 -28 9 -35 25 -10 21 -9 25
4 25 8 0 24 -5 35 -10z m97 -15 c-7 -16 -19 -25 -35 -25 -45 0 -17 49 29 50
15 0 16 -4 6 -25z"/>
</g>
</svg>
