<?xml version="1.0" standalone="no"?>
<!DOCTYPE svg PUBLIC "-//W3C//DTD SVG 20010904//EN"
 "http://www.w3.org/TR/2001/REC-SVG-20010904/DTD/svg10.dtd">
<svg version="1.0" xmlns="http://www.w3.org/2000/svg"
 width="558.000000pt" height="405.000000pt" viewBox="0 0 558.000000 405.000000"
 preserveAspectRatio="xMidYMid meet">
 <metadata>
    Created by potrace 1.10, written by Peter Selinger 2001-2011
  </metadata>
  <defs>
   <filter id="glow-effect" x="-50%" y="-50%" width="200%" height="200%">
      <feGaussianBlur in="SourceGraphic" stdDeviation="4" result="blur"/>
      <feFlood flood-color="#FFFAE4" result="color"/>
      <feComposite in="color" in2="blur" operator="in" result="glow"/>
      <feMerge>
        <feMergeNode in="glow"/>
        <feMergeNode in="SourceGraphic"/>
      </feMerge>
    </filter>
  </defs>
  <g transform="translate(.133000,420.000000) scale(0.114000,-0.114000)" fill="#FFFAE4" stroke="none" filter="url(#glow-effect)">
<path d="M2921 3692 c-74 -25 -111 -76 -111 -152 0 -52 3 -57 54 -111 26 -28
29 -36 30 -109 1 -58 -3 -81 -12 -85 -8 -3 -69 -5 -137 -5 l-124 0 -20 28
c-11 16 -41 37 -66 46 -42 17 -48 17 -88 1 -74 -29 -117 -85 -117 -153 1 -43
43 -111 80 -128 79 -38 81 -38 100 -26 11 7 26 12 35 12 8 0 29 16 46 35 l32
35 337 0 337 0 24 -26 c13 -15 43 -34 65 -44 38 -17 45 -17 85 -3 52 17 78 38
102 82 46 88 -2 182 -114 222 -33 11 -42 10 -81 -9 -25 -11 -52 -32 -62 -47
-17 -26 -17 -26 -139 -23 l-122 3 -3 89 c-3 89 -3 89 30 123 31 32 33 39 32
100 0 64 -2 67 -42 104 -23 22 -50 39 -61 39 -11 0 -23 5 -26 10 -7 12 -7 12
-64 -8z m112 -86 c32 -41 42 -89 24 -107 -7 -8 -16 -21 -19 -30 -7 -19 -69
-33 -101 -23 -44 13 -57 34 -57 93 0 47 4 59 26 78 40 34 97 29 127 -11z m-41
-289 c-3 -39 1 -69 12 -92 l17 -35 128 0 129 0 0 -35 0 -35 -318 0 -318 0 0
35 0 35 132 0 c72 0 138 5 146 10 11 7 15 31 17 92 1 46 2 84 2 86 1 2 13 2
29 0 26 -3 27 -4 24 -61z m-423 -99 c14 -18 21 -41 21 -71 0 -41 -3 -47 -35
-67 -29 -18 -44 -21 -80 -16 -24 4 -48 13 -54 20 -17 21 -22 136 -6 136 7 0
15 6 18 14 4 10 22 14 60 12 47 -1 58 -5 76 -28z m926 8 c25 -22 27 -28 20
-72 -11 -76 -28 -94 -86 -90 -68 4 -99 33 -99 94 0 61 26 87 89 90 38 1 54 -3
76 -22z"/>
<path d="M2449 2843 c-33 -5 -99 -67 -99 -92 0 -11 -4 -23 -10 -26 -12 -8 -13
-52 -1 -59 5 -3 12 -17 15 -31 14 -55 77 -95 150 -95 30 0 58 -5 61 -10 3 -6
39 -36 78 -67 40 -32 83 -68 97 -80 14 -13 28 -23 31 -23 3 0 22 -13 40 -30
l34 -30 -34 -30 c-18 -16 -36 -30 -40 -30 -3 0 -22 -15 -42 -33 -40 -36 -62
-55 -133 -112 -28 -22 -64 -53 -80 -68 -17 -15 -52 -44 -78 -64 -41 -32 -48
-43 -54 -82 -4 -25 -9 -50 -13 -56 -9 -14 -30 -117 -42 -200 -5 -38 -12 -77
-16 -85 -3 -8 -12 -55 -19 -105 -32 -209 -46 -303 -52 -359 -4 -33 -12 -61
-19 -64 -7 -2 -13 3 -13 11 0 7 -8 22 -19 31 -55 49 -169 40 -208 -17 -47 -68
-38 -168 20 -229 45 -48 81 -68 120 -68 54 0 62 -18 47 -103 -7 -39 -16 -96
-19 -125 -4 -28 -12 -57 -19 -64 -7 -7 -12 -20 -12 -31 0 -26 -38 -89 -67
-111 -47 -35 -113 8 -113 74 0 57 36 90 98 90 57 0 75 10 70 40 -6 42 -51 65
-125 62 -90 -2 -134 -33 -176 -122 -58 -121 5 -254 141 -296 46 -15 60 -15
110 -4 31 7 67 19 79 26 35 22 103 96 103 114 0 8 6 27 14 41 7 14 17 52 21
84 4 32 11 65 15 74 5 9 14 43 20 76 6 33 18 92 26 130 8 39 22 108 30 155 8
47 21 122 29 168 31 169 69 387 90 512 31 181 44 256 50 282 8 30 140 162 253
251 40 32 91 76 115 97 23 22 49 40 57 40 8 0 33 -17 55 -38 23 -20 75 -64
115 -97 41 -33 104 -87 138 -120 35 -33 70 -64 78 -68 26 -15 47 -71 60 -162
8 -49 21 -130 29 -180 9 -49 22 -128 30 -175 19 -114 49 -283 89 -505 8 -44
19 -109 25 -145 7 -36 16 -72 21 -81 4 -9 11 -42 15 -75 4 -32 11 -63 15 -69
4 -5 11 -35 15 -65 8 -70 47 -163 83 -199 41 -41 83 -61 165 -78 66 -13 174
46 222 122 26 42 26 128 -2 185 -42 89 -86 119 -175 122 -75 2 -114 -16 -124
-58 -9 -34 7 -44 68 -44 37 0 53 -5 73 -25 36 -37 35 -92 -3 -128 -33 -31 -44
-33 -82 -10 -27 16 -70 86 -70 115 0 8 -6 20 -12 26 -7 7 -16 41 -19 75 -4 34
-12 91 -19 126 -12 59 -11 65 6 78 10 7 31 13 46 13 16 0 41 8 56 17 44 28
102 92 102 114 0 11 4 28 9 38 12 21 -11 106 -37 137 -25 29 -84 47 -132 39
-44 -7 -90 -39 -90 -61 0 -8 -6 -14 -14 -14 -10 0 -15 20 -20 73 -6 77 -25
216 -51 362 -9 50 -22 126 -30 170 -28 161 -67 314 -82 324 -13 8 -102 81
-123 101 -9 8 -38 33 -65 55 -68 55 -94 76 -124 104 -14 13 -37 31 -51 40 -35
23 -70 53 -70 62 0 3 26 26 57 50 61 46 62 46 165 133 62 52 71 56 118 56 73
0 121 33 154 108 17 38 18 46 5 84 -37 114 -173 154 -255 76 l-31 -29 -333 0
-333 0 -31 30 c-33 32 -89 45 -147 34z m106 -67 c16 -8 33 -23 37 -33 13 -34
8 -91 -10 -113 -22 -27 -77 -39 -117 -26 -40 14 -40 13 -25 31 17 20 5 32 -15
15 -17 -14 -16 -14 -21 20 -5 40 6 80 22 80 8 0 18 8 21 18 13 35 51 38 108 8z
m934 -10 c15 -16 23 -38 25 -70 3 -59 -20 -82 -91 -92 -47 -6 -54 -4 -77 19
-37 37 -36 100 1 139 36 38 108 40 142 4z m-218 -67 c6 -12 8 -23 5 -26 -6 -6
-626 -6 -633 0 -2 3 0 15 6 26 11 20 19 20 311 20 291 0 300 -1 311 -20z m-33
-86 c2 -7 -2 -13 -8 -13 -7 0 -31 -15 -54 -32 -22 -18 -45 -36 -51 -40 -5 -4
-42 -35 -81 -68 -40 -33 -78 -60 -85 -60 -8 0 -41 25 -74 55 -33 30 -63 55
-67 55 -4 0 -13 6 -20 13 -31 30 -97 77 -107 77 -6 0 -11 6 -11 14 0 20 551
18 558 -1z m86 -40 c5 -15 2 -23 -11 -27 -10 -3 -29 -16 -43 -28 -14 -13 -76
-63 -137 -113 -109 -87 -129 -114 -99 -132 12 -7 102 -82 130 -108 6 -6 33
-28 61 -50 47 -38 95 -78 119 -100 6 -6 34 -28 61 -50 28 -22 57 -49 65 -60
16 -21 34 -90 51 -190 5 -33 14 -68 19 -77 6 -10 10 -35 10 -55 1 -21 5 -58
11 -83 14 -61 37 -207 49 -305 5 -44 14 -91 20 -105 6 -14 14 -61 19 -105 18
-157 33 -195 67 -177 11 5 38 12 62 16 48 7 85 35 102 76 10 23 8 34 -9 68
-11 22 -30 43 -41 47 -26 8 -16 25 15 25 14 0 34 -13 50 -32 24 -28 27 -39 23
-85 -7 -78 -61 -129 -158 -148 -19 -4 -41 -12 -47 -17 -15 -12 -16 -101 -3
-168 5 -25 14 -70 19 -100 11 -58 15 -68 50 -142 31 -62 61 -89 110 -95 148
-20 193 217 48 251 -44 10 -21 29 26 22 52 -9 90 -50 113 -123 14 -44 15 -59
6 -74 -7 -10 -12 -25 -12 -34 0 -19 -53 -73 -85 -85 -59 -23 -160 -8 -202 29
-35 31 -73 96 -73 127 0 11 -3 24 -7 28 -8 8 -24 84 -43 201 -6 33 -14 69 -19
80 -5 11 -14 52 -21 90 -6 39 -18 106 -26 150 -8 44 -19 110 -24 148 -5 37
-13 82 -19 100 -9 30 -19 88 -41 250 -5 38 -13 83 -19 100 -5 18 -13 65 -16
105 -4 39 -11 75 -16 78 -5 3 -9 22 -9 42 0 91 -9 108 -92 189 -98 95 -92 89
-153 138 -27 22 -55 45 -61 50 -26 23 -73 63 -116 98 -45 36 -90 48 -103 27
-3 -6 -39 -36 -78 -67 -40 -31 -74 -59 -77 -62 -3 -4 -27 -24 -55 -46 -27 -21
-81 -68 -118 -104 -37 -36 -71 -68 -76 -71 -20 -14 -42 -71 -51 -135 -14 -106
-37 -235 -49 -280 -6 -22 -11 -59 -11 -83 0 -24 -4 -52 -10 -62 -5 -10 -14
-52 -20 -92 -16 -120 -31 -211 -41 -248 -5 -19 -14 -64 -19 -100 -14 -100 -71
-376 -110 -528 -19 -76 -78 -145 -133 -156 -44 -9 -113 -7 -139 3 -41 17 -77
57 -93 104 -14 43 -14 51 1 97 28 85 89 132 152 115 l27 -8 -35 -9 c-98 -27
-129 -145 -57 -220 28 -29 38 -33 84 -33 43 0 57 5 81 28 16 16 37 47 47 70
10 23 21 51 26 62 5 11 13 40 18 65 5 25 14 68 19 96 16 76 17 161 3 178 -7 8
-31 18 -54 21 -83 15 -147 71 -154 138 -9 80 40 144 94 122 16 -6 15 -8 -7
-20 -14 -7 -33 -31 -43 -54 -16 -36 -17 -43 -3 -68 21 -41 51 -62 98 -69 24
-4 51 -11 62 -16 11 -6 22 -6 27 -1 14 14 36 111 44 193 4 41 11 80 16 86 5 6
12 49 16 95 3 46 9 89 14 94 4 6 10 44 14 85 4 41 11 86 16 101 5 14 14 56 19
95 14 102 36 215 49 247 6 16 11 40 11 55 1 32 18 53 85 107 28 22 55 44 61
50 6 5 32 28 59 50 124 103 182 152 208 178 16 15 32 27 37 27 5 0 12 10 16
22 4 15 1 25 -11 35 -10 7 -30 23 -44 36 -15 13 -58 47 -96 77 -39 30 -81 65
-95 78 -14 12 -33 25 -43 28 -11 4 -16 12 -13 21 3 8 6 19 6 24 0 22 46 6 84
-28 23 -21 61 -54 85 -73 24 -19 55 -46 70 -59 14 -13 37 -31 51 -39 14 -9 29
-22 33 -29 11 -17 64 -17 74 0 4 8 24 24 43 38 19 13 40 29 46 34 6 6 33 28
60 50 27 22 66 57 87 77 55 53 78 56 91 11z m-1098 -1618 c-3 -11 -9 -36 -13
-55 -7 -26 -15 -36 -32 -38 -60 -9 -108 32 -95 82 10 40 45 54 100 42 38 -9
45 -14 40 -31z m1587 23 c53 -41 13 -118 -61 -118 -38 0 -40 1 -45 38 -3 20
-7 46 -9 56 -2 14 4 22 22 27 40 11 75 10 93 -3z"/>
</g>
</svg>
