<?xml version="1.0" standalone="no"?>
<!DOCTYPE svg PUBLIC "-//W3C//DTD SVG 20010904//EN"
 "http://www.w3.org/TR/2001/REC-SVG-20010904/DTD/svg10.dtd">
<svg version="1.0" xmlns="http://www.w3.org/2000/svg"
 width="300.000000pt" height="169.000000pt" viewBox="0 0 300.000000 169.000000"
 preserveAspectRatio="xMidYMid meet">
<metadata>
    Created by potrace 1.10, written by Peter Selinger 2001-2011
  </metadata>
  <defs>
   <filter id="glow-effect" x="-50%" y="-50%" width="200%" height="200%">
      <feGaussianBlur in="SourceGraphic" stdDeviation="4" result="blur"/>
      <feFlood flood-color="#FFFAE4" result="color"/>
      <feComposite in="color" in2="blur" operator="in" result="glow"/>
      <feMerge>
        <feMergeNode in="glow"/>
        <feMergeNode in="SourceGraphic"/>
      </feMerge>
    </filter>
  </defs>
  <g transform="translate(0.000000,169.000000) scale(0.100000,-0.100000)" fill="#FFFAE4" stroke="none" filter="url(#glow-effect)">
<path d="M1435 1651 c-86 -52 -95 -165 -20 -236 15 -13 25 -29 23 -35 -2 -6
-39 -23 -83 -38 -44 -16 -98 -40 -121 -54 -22 -15 -45 -23 -50 -20 -5 4 -9 33
-9 64 0 64 -20 100 -74 132 -92 54 -211 -16 -211 -125 0 -88 65 -149 158 -149
61 0 66 -11 27 -68 -14 -20 -37 -74 -51 -119 -30 -94 -43 -102 -89 -53 -92 96
-246 34 -245 -100 1 -25 7 -56 14 -69 17 -31 93 -81 123 -81 37 0 86 25 116
59 16 18 35 31 44 29 9 -2 23 -28 35 -66 10 -34 32 -86 49 -113 42 -72 42 -74
-21 -75 -98 -2 -160 -57 -160 -143 0 -55 21 -94 67 -126 94 -63 211 6 221 130
5 63 14 67 70 30 40 -26 143 -65 174 -65 35 0 31 -29 -10 -74 -67 -72 -67
-137 -3 -204 50 -52 96 -61 156 -32 54 26 85 73 85 129 0 49 -11 74 -53 118
-37 39 -31 58 22 67 22 3 79 26 125 50 47 24 88 41 91 38 3 -3 5 -34 5 -70 0
-63 1 -66 44 -108 40 -40 48 -44 93 -44 70 0 123 40 143 110 13 47 -4 100 -46
141 -29 28 -43 33 -95 37 -69 5 -80 18 -51 59 26 37 57 108 72 163 7 25 17 48
23 52 6 3 30 -11 55 -32 73 -65 137 -65 202 0 46 46 57 92 34 149 -44 109
-167 132 -244 45 -17 -20 -37 -34 -44 -31 -7 3 -20 34 -30 70 -10 35 -33 90
-52 121 -19 31 -34 59 -34 61 0 2 28 2 63 2 71 -2 102 15 136 74 26 46 26 81
0 135 -15 32 -32 48 -65 64 -59 29 -103 21 -156 -29 -34 -31 -41 -44 -45 -86
-7 -78 -9 -80 -41 -59 -45 30 -115 62 -175 79 -32 9 -57 19 -57 23 0 3 17 23
37 44 32 33 37 45 41 96 4 59 4 60 -40 106 -41 43 -48 46 -94 46 -30 0 -61 -7
-79 -19z m147 -50 c28 -25 33 -36 33 -76 0 -40 -5 -51 -33 -76 -72 -64 -182
-18 -182 76 0 94 110 140 182 76z m-502 -166 c39 -20 60 -53 60 -93 0 -27 -9
-43 -40 -73 -44 -43 -88 -51 -128 -23 -25 17 -52 64 -52 89 0 33 32 84 63 99
40 20 61 20 97 1z m983 -45 c41 -45 38 -101 -7 -146 -41 -41 -89 -46 -131 -12
-55 43 -64 109 -21 157 46 51 113 51 159 1z m-536 -18 c4 -27 1 -32 -18 -32
-17 0 -20 4 -15 23 3 12 6 28 6 35 0 27 24 5 27 -26z m96 -58 c84 -22 132 -48
195 -108 108 -102 150 -195 153 -337 2 -94 -10 -148 -51 -229 -33 -65 -136
-167 -200 -198 -159 -76 -332 -64 -472 31 -244 167 -277 510 -69 718 119 119
284 165 444 123z m-448 -105 c0 -25 -30 -19 -53 11 -32 41 -19 58 21 27 18
-14 32 -31 32 -38z m721 30 c3 -6 -3 -21 -15 -32 -16 -16 -23 -19 -33 -9 -9 9
-7 16 7 32 20 23 31 25 41 9z m360 -300 c30 -28 40 -80 23 -120 -14 -35 -62
-69 -97 -69 -31 0 -79 26 -92 49 -13 25 -13 97 0 121 28 52 120 62 166 19z
m-1356 -5 c29 -25 31 -30 28 -87 -3 -57 -5 -63 -37 -84 -19 -13 -45 -23 -58
-23 -66 0 -121 69 -109 135 15 78 114 111 176 59z m130 -75 c0 -20 -71 -32
-82 -15 -18 26 -7 35 37 33 34 -2 45 -6 45 -18z m1033 4 c18 -11 4 -21 -33
-25 -36 -3 -40 -1 -40 20 0 21 3 23 33 17 17 -4 35 -9 40 -12z m-885 -353 c10
-16 10 -20 -2 -20 -8 0 -16 -7 -20 -15 -6 -17 -32 -20 -41 -4 -7 10 31 59 44
59 4 0 12 -9 19 -20z m792 -32 c39 3 52 -1 78 -23 80 -67 33 -189 -74 -189
-47 0 -94 46 -101 101 -5 35 -1 44 23 68 24 22 25 26 9 22 -14 -4 -27 3 -43
24 -33 41 -18 55 25 22 30 -23 45 -27 83 -25z m-869 -17 c53 -52 54 -98 5
-147 -36 -36 -71 -43 -120 -24 -28 10 -66 64 -66 93 0 35 31 85 63 101 50 25
76 20 118 -23z m429 -132 c0 -32 -3 -39 -20 -39 -23 0 -26 23 -10 65 14 36 30
22 30 -26z m52 -66 c46 -53 47 -112 2 -157 -97 -96 -246 39 -158 143 23 28 31
31 83 31 43 0 62 -5 73 -17z"/>
<path d="M1458 1272 c8 -6 -6 -13 -39 -20 -28 -7 -55 -10 -60 -7 -13 9 -71
-24 -63 -36 3 -6 -8 -15 -25 -22 -17 -6 -31 -15 -31 -20 0 -5 41 -52 92 -105
51 -54 94 -99 97 -102 2 -3 1 1 -4 9 -6 10 -4 12 4 7 9 -6 9 -11 0 -22 -6 -8
-16 -14 -21 -14 -4 0 -52 43 -106 97 -53 53 -92 94 -87 91 6 -4 11 5 11 19 2
24 1 24 -18 6 -68 -61 -118 -184 -118 -290 0 -48 3 -64 10 -53 7 11 8 6 4 -17
-5 -24 0 -43 20 -77 14 -24 26 -50 26 -56 0 -7 16 -34 36 -61 52 -72 193 -144
299 -153 61 -5 181 29 253 72 98 58 130 108 177 276 14 50 15 69 4 130 -15 90
-26 119 -41 110 -6 -4 -8 -3 -4 4 3 6 -5 23 -19 38 -14 15 -25 31 -25 37 0 35
-125 138 -149 123 -13 -8 -131 25 -131 36 0 4 -24 8 -52 8 -31 0 -48 -4 -40
-8z m74 -154 l5 -138 -24 0 c-23 0 -23 0 -23 139 0 102 3 141 13 144 6 2 15 2
18 -2 4 -3 9 -68 11 -143z m201 87 c20 -14 37 -28 37 -31 0 -6 -67 32 -84 48
-22 19 12 7 47 -17z m-285 -88 c2 -77 0 -97 -11 -97 -8 0 -42 30 -77 66 -55
57 -61 67 -48 80 17 17 108 54 123 50 6 -1 11 -46 13 -99z m261 48 c13 -13 7
-22 -51 -81 -37 -36 -71 -63 -77 -59 -16 9 -14 182 2 188 16 6 107 -28 126
-48z m88 -26 c7 -7 -5 -25 -43 -61 -29 -28 -72 -75 -95 -104 -33 -43 -44 -52
-55 -43 -8 6 -14 16 -14 23 0 11 180 196 190 196 3 0 11 -5 17 -11z m-634 -78
c-16 -27 -29 -48 -31 -46 -4 4 26 64 40 83 21 25 17 10 -9 -37z m665 -18 c24
-35 45 -99 37 -113 -8 -13 -185 -13 -185 -1 0 12 110 141 120 141 5 0 17 -12
28 -27z m-541 -45 c35 -34 63 -66 63 -71 0 -4 -44 -6 -97 -5 -111 3 -117 9
-87 75 22 48 33 63 47 63 7 0 40 -28 74 -62z m295 -64 c23 -23 28 -36 28 -74
0 -38 -5 -51 -28 -73 -54 -52 -134 -41 -167 23 -57 110 77 210 167 124z m-197
-78 c0 -17 -10 -18 -138 -20 -136 -1 -137 -1 -137 22 0 23 0 23 138 20 126 -3
137 -4 137 -22z m525 4 c0 -18 -7 -20 -57 -20 -32 0 -95 -3 -140 -7 -78 -6
-83 -5 -83 14 0 11 3 23 7 26 3 4 66 7 140 7 126 0 133 -1 133 -20z m-570 -70
c11 -7 1 -22 -51 -74 -36 -37 -71 -66 -77 -66 -14 0 -62 92 -62 119 0 11 6 22
13 24 22 9 162 7 177 -3z m526 -4 c7 -18 -37 -128 -54 -134 -6 -2 -42 27 -80
65 l-67 68 40 6 c79 12 155 10 161 -5z m-437 -20 c17 -20 -187 -210 -207 -194
-10 9 7 31 85 110 54 54 101 98 104 98 4 0 12 -6 18 -14z m189 2 c7 -7 12 -10
12 -7 0 2 41 -36 91 -85 65 -65 87 -91 77 -97 -7 -5 -16 -9 -20 -9 -16 0 -188
176 -188 193 0 20 11 22 28 5z m-86 -168 c3 -124 1 -140 -13 -140 -23 0 -29
29 -29 140 0 107 6 140 26 140 10 0 14 -32 16 -140z m-81 80 c0 -11 0 -47 0
-80 0 -103 1 -100 -23 -100 -35 0 -128 47 -128 65 0 8 3 15 8 15 4 0 34 27 67
60 33 32 63 59 68 60 4 0 7 -9 8 -20z m214 -59 c57 -58 58 -61 40 -76 -31 -23
-103 -48 -120 -42 -12 5 -15 25 -15 102 0 113 0 112 95 16z"/>
</g>
</svg>
