<?xml version="1.0" standalone="no"?>
<!DOCTYPE svg PUBLIC "-//W3C//DTD SVG 20010904//EN"
 "http://www.w3.org/TR/2001/REC-SVG-20010904/DTD/svg10.dtd">
<svg version="1.0" xmlns="http://www.w3.org/2000/svg"
 width="300.000000pt" height="222.000000pt" viewBox="0 0 300.000000 222.000000"
 preserveAspectRatio="xMidYMid meet">
<metadata>
Created by potrace 1.10, written by Peter Selinger 2001-2011
</metadata>

<g transform="translate(0.000000,222.000000) scale(0.100000,-0.100000)"
fill="#ffffff" stroke="none">
<path d="M237 2202 l-198 -2 3 -118 3 -117 252 -5 253 -5 20 -37 c11 -21 20
-42 20 -47 0 -8 185 -407 405 -871 48 -102 105 -222 126 -267 l38 -83 675 0
c527 0 676 3 683 13 5 6 48 93 96 192 47 99 122 257 168 350 154 321 199 417
199 431 0 11 -26 14 -131 14 l-130 0 -53 -112 c-30 -62 -86 -180 -126 -263
-40 -82 -96 -200 -125 -261 l-53 -111 -78 -6 c-44 -3 -279 -4 -523 -3 l-444 3
-32 69 c-18 38 -77 164 -132 279 -55 116 -178 377 -273 580 -96 204 -174 371
-174 371 -3 5 -306 9 -469 6z"/>
<path d="M1195 423 c-132 -69 -155 -244 -44 -337 51 -44 80 -52 153 -46 77 6
127 40 164 111 48 92 10 213 -83 266 -49 28 -144 31 -190 6z"/>
<path d="M2224 422 c-83 -47 -114 -95 -114 -179 0 -70 18 -110 68 -155 49 -45
73 -52 155 -46 50 3 70 10 100 33 125 94 103 292 -38 351 -46 19 -133 17 -171
-4z"/>
</g>
</svg>
