<?xml version="1.0" standalone="no"?>
<!DOCTYPE svg PUBLIC "-//W3C//DTD SVG 20010904//EN"
 "http://www.w3.org/TR/2001/REC-SVG-20010904/DTD/svg10.dtd">
<svg version="1.0" xmlns="http://www.w3.org/2000/svg"
 width="372.000000pt" height="408.000000pt" viewBox="0 0 372.000000 408.000000"
 preserveAspectRatio="xMidYMid meet">
 <metadata>
    Created by potrace 1.10, written by Peter Selinger 2001-2011
  </metadata>
  <defs>
   <filter id="glow-effect" x="-50%" y="-50%" width="200%" height="200%">
      <feGaussianBlur in="SourceGraphic" stdDeviation="4" result="blur"/>
      <feFlood flood-color="#FFFAE4" result="color"/>
      <feComposite in="color" in2="blur" operator="in" result="glow"/>
      <feMerge>
        <feMergeNode in="glow"/>
        <feMergeNode in="SourceGraphic"/>
      </feMerge>
    </filter>
  </defs>
  <g transform="translate(.133000,420.000000) scale(0.114000,-0.114000)" fill="#FFFAE4" stroke="none" filter="url(#glow-effect)">
<path d="M1832 3658 c-6 -6 -12 -17 -12 -24 0 -6 -7 -17 -15 -24 -8 -7 -15
-20 -15 -30 0 -10 -7 -20 -15 -24 -8 -3 -15 -16 -15 -30 0 -13 -7 -26 -15 -30
-8 -3 -15 -14 -15 -24 0 -11 -7 -25 -15 -32 -8 -7 -15 -25 -15 -40 0 -15 -7
-33 -15 -40 -8 -7 -15 -22 -15 -34 0 -11 -7 -30 -15 -40 -8 -11 -15 -38 -15
-60 -1 -23 -7 -52 -15 -66 -12 -21 -14 -151 -15 -832 0 -768 -1 -808 -18 -808
-10 0 -28 -7 -40 -16 -12 -8 -37 -14 -55 -12 -29 3 -32 7 -35 38 -2 19 -10 39
-18 43 -8 4 -14 12 -14 17 0 32 -102 82 -123 61 -6 -6 -19 -11 -30 -11 -55 0
-111 -117 -72 -150 8 -7 15 -20 15 -30 0 -21 43 -51 85 -60 30 -6 30 -6 33
-82 3 -79 1 -85 -53 -173 -10 -16 -31 -41 -47 -54 l-29 -24 -33 32 c-26 25
-40 31 -77 31 -39 0 -51 -5 -82 -37 -35 -34 -37 -40 -37 -97 0 -69 10 -83 77
-111 32 -14 44 -14 82 -3 24 7 46 19 48 26 3 6 13 12 22 12 19 0 71 -50 71
-68 0 -6 6 -15 13 -19 29 -19 47 -72 47 -138 0 -80 -11 -105 -48 -105 -35 0
-102 -73 -102 -113 0 -29 19 -65 55 -104 16 -19 31 -23 80 -23 49 0 64 4 80
23 32 34 53 71 57 98 2 20 9 25 40 27 23 2 47 -3 60 -12 12 -9 34 -16 49 -16
15 0 32 -7 39 -15 7 -8 18 -15 25 -15 7 0 29 -16 49 -36 38 -38 46 -73 21 -94
-10 -8 -15 -31 -15 -69 0 -53 3 -60 38 -94 32 -31 44 -37 82 -37 37 0 52 6 83
35 36 33 37 37 37 100 0 49 -4 67 -15 71 -26 10 -17 50 21 88 20 20 42 36 49
36 7 0 18 7 25 15 7 8 24 15 39 15 14 1 37 7 51 15 36 21 89 19 96 -3 13 -42
37 -87 57 -109 18 -19 32 -23 83 -23 50 0 64 4 80 22 35 40 54 76 54 104 0 37
-64 114 -95 114 -39 0 -55 25 -55 88 1 34 7 65 15 76 8 11 15 29 15 41 0 19
83 125 99 125 4 0 21 -13 37 -30 44 -44 95 -42 153 8 44 38 44 39 44 100 -1
58 -3 63 -39 96 -33 31 -46 36 -86 36 -36 0 -53 -6 -74 -25 -15 -14 -31 -25
-36 -25 -18 0 -98 92 -98 114 0 12 -7 31 -15 44 -12 15 -15 41 -13 89 3 66 3
67 34 74 44 9 72 31 94 75 28 54 25 83 -13 124 -45 49 -94 65 -138 45 -42 -18
-69 -39 -69 -53 0 -5 -6 -12 -14 -15 -8 -3 -16 -22 -18 -44 -3 -36 -4 -38 -38
-37 -19 1 -52 8 -72 15 l-38 14 0 805 c-1 679 -3 809 -15 830 -8 14 -14 46
-15 71 0 29 -6 51 -15 59 -8 7 -15 22 -15 34 0 11 -7 30 -15 40 -8 11 -15 30
-15 42 0 12 -7 27 -15 34 -8 7 -15 20 -15 30 0 10 -7 23 -15 30 -8 7 -15 21
-15 32 0 10 -7 21 -15 24 -8 4 -15 17 -15 30 0 12 -6 27 -14 31 -8 4 -15 17
-18 28 -4 23 -28 31 -46 13z m27 -95 c-3 -34 1 -43 21 -43 15 0 20 -7 20 -25
0 -20 -5 -25 -24 -25 -14 0 -28 5 -31 10 -11 19 -25 10 -25 -15 0 -24 -24 -45
-36 -32 -4 3 5 30 19 59 14 29 27 61 31 71 3 9 10 17 16 17 6 0 10 -8 9 -17z
m71 -138 c5 -14 14 -25 20 -25 5 0 10 -9 10 -21 0 -12 6 -35 14 -52 8 -18 19
-47 25 -65 9 -30 8 -35 -9 -39 -13 -3 -20 -14 -20 -29 0 -29 20 -32 27 -4 11
42 23 17 23 -49 0 -45 -5 -72 -13 -80 -18 -14 -27 -4 -27 29 0 15 -7 33 -15
40 -8 7 -15 25 -15 41 0 16 -5 29 -11 29 -5 0 -15 14 -20 30 -6 17 -15 30 -20
30 -5 0 -9 11 -9 24 0 17 7 26 26 30 21 6 25 11 20 29 -3 12 -6 30 -6 39 0 12
-10 18 -37 20 -60 5 -45 39 20 47 4 1 12 -10 17 -24z m-121 -39 c15 -28 57
-40 65 -20 6 16 46 19 46 4 0 -6 -11 -16 -25 -22 -14 -6 -25 -15 -25 -19 0 -4
-12 -14 -27 -21 -15 -7 -36 -32 -48 -56 -12 -23 -27 -48 -33 -54 -7 -7 -12
-25 -12 -40 0 -16 -7 -31 -15 -34 -8 -4 -15 -18 -15 -33 -1 -14 -7 -37 -15
-51 -12 -20 -14 -93 -15 -394 0 -203 -2 -367 -4 -365 -3 2 -5 184 -5 404 0
220 0 434 0 477 0 55 4 79 14 88 8 7 15 23 15 36 0 13 9 28 20 34 13 7 20 21
20 38 0 51 38 69 59 28z m61 -177 c4 -8 15 -28 24 -46 9 -17 16 -40 16 -50 0
-10 6 -25 13 -31 9 -10 13 -148 15 -607 2 -564 1 -595 -16 -595 -10 0 -27 7
-39 15 -19 13 -25 13 -57 0 -72 -30 -66 -78 -65 562 0 622 -2 596 55 721 24
52 40 61 54 31z m160 -223 c0 -19 -4 -37 -9 -40 -11 -7 -23 37 -15 58 11 28
24 17 24 -18z m0 -1334 c3 -65 -1 -79 -20 -67 -7 4 -9 32 -6 78 2 40 6 331 7
647 l3 575 7 -585 c4 -322 8 -613 9 -648z m-343 301 c-1 -43 -3 -10 -3 72 0
83 2 118 3 78 2 -40 2 -107 0 -150z m228 -127 c10 -9 19 -34 22 -54 4 -31 0
-44 -20 -67 -21 -25 -32 -29 -67 -28 -49 2 -73 23 -83 72 -7 34 1 58 30 86 21
21 94 16 118 -9z m-220 -137 c0 -63 -4 -94 -12 -96 -9 -3 -11 22 -9 99 4 120
5 129 14 106 4 -10 7 -59 7 -109z m123 -115 c-3 -45 -5 -49 -28 -49 -34 0 -38
35 -9 81 27 45 41 33 37 -32z m96 42 c9 -14 17 -40 18 -58 3 -31 1 -33 -33
-36 l-37 -3 3 49 c4 76 20 91 49 48z m-527 -33 c26 -39 22 -101 -8 -124 -30
-23 -72 -24 -104 -3 -21 14 -25 24 -25 65 0 63 23 89 80 89 32 0 43 -5 57 -27z
m1055 3 c4 -6 8 -32 8 -58 0 -40 -4 -49 -27 -66 -44 -30 -69 -32 -98 -8 -21
18 -25 30 -25 71 0 57 7 70 35 78 29 7 99 -3 107 -17z m-727 -103 c32 -36 31
-43 -5 -43 -34 0 -53 25 -39 52 13 24 16 23 44 -9z m-107 -51 c3 -45 0 -56
-20 -72 -25 -21 -68 -27 -68 -9 0 11 -70 79 -82 79 -13 0 -9 30 5 31 6 1 30 1
52 0 23 -1 48 4 60 13 35 27 50 16 53 -42z m537 42 c16 -10 40 -15 72 -12 39
2 48 0 51 -14 2 -11 -3 -18 -12 -18 -9 0 -16 -3 -16 -7 0 -18 -71 -83 -90 -83
-36 0 -59 38 -60 98 0 58 11 65 55 36z m-134 -4 c28 -15 23 -30 -9 -30 -35 0
-45 9 -31 27 14 16 15 16 40 3z m301 -57 c15 -13 18 -31 18 -98 0 -61 4 -86
15 -95 8 -7 15 -23 15 -35 0 -13 7 -25 15 -29 8 -3 15 -13 15 -21 0 -9 16 -31
35 -49 32 -30 46 -65 28 -67 -5 0 -38 -2 -76 -3 -65 -3 -68 -2 -73 23 -3 14
-12 41 -20 59 -8 18 -14 44 -14 58 0 13 -7 27 -15 30 -8 4 -15 17 -15 29 0 14
-13 34 -30 48 -16 14 -30 34 -30 43 0 10 20 37 45 61 25 23 45 47 45 53 0 15
21 12 42 -7z m-844 -43 c29 -28 52 -56 52 -63 0 -7 -13 -26 -30 -42 -16 -16
-30 -36 -30 -46 0 -9 -7 -22 -15 -29 -8 -7 -15 -27 -15 -45 0 -18 -7 -38 -15
-45 -9 -7 -15 -29 -15 -51 l0 -39 -84 0 c-47 0 -87 4 -90 8 -3 5 18 32 46 62
27 29 56 68 64 86 8 18 18 35 24 39 5 3 10 46 10 95 0 48 3 95 6 104 11 28 39
17 92 -34z m542 7 c25 -12 49 -28 53 -34 4 -7 15 -13 22 -13 17 0 36 -17 85
-80 42 -54 57 -83 65 -132 3 -20 12 -50 20 -65 20 -37 19 -58 -5 -126 -11 -31
-20 -66 -20 -77 0 -11 -4 -20 -10 -20 -5 0 -10 -9 -10 -21 0 -25 -127 -159
-152 -159 -9 0 -20 -4 -23 -10 -3 -5 -14 -10 -23 -10 -9 0 -30 -7 -47 -16 -37
-20 -189 -24 -207 -6 -7 7 -26 12 -43 12 -18 0 -42 9 -55 20 -13 11 -27 20
-33 20 -17 0 -127 122 -127 141 0 11 -7 22 -15 25 -8 4 -15 18 -15 33 0 14 -6
38 -14 52 -26 51 -29 114 -7 163 12 25 21 59 21 75 0 17 5 31 10 31 6 0 10 5
10 11 0 25 113 148 138 149 6 0 12 3 12 8 0 4 21 17 48 29 79 37 246 37 322 0z
m-861 -314 c41 -39 45 -84 10 -122 -18 -20 -28 -22 -63 -17 -45 7 -86 44 -86
77 0 27 60 89 87 89 12 0 35 -12 52 -27z m1487 6 c42 -26 52 -42 46 -79 -10
-72 -94 -96 -145 -42 -37 38 -34 68 9 108 42 40 46 41 90 13z m-205 -89 c27 0
49 -5 49 -10 0 -6 -20 -30 -45 -53 -25 -24 -45 -49 -45 -55 0 -6 -6 -17 -12
-24 -26 -27 -42 -85 -46 -165 -3 -73 -6 -83 -22 -83 -11 0 -44 24 -73 53 l-55
53 19 24 c11 14 23 30 29 37 5 7 10 19 10 26 0 8 7 20 15 27 8 7 15 25 15 40
0 15 7 33 15 40 9 7 15 29 15 50 0 42 11 51 54 45 16 -3 50 -5 77 -5z m-1031
-33 c0 -18 7 -42 15 -53 8 -10 15 -31 15 -45 0 -15 7 -32 15 -39 8 -7 15 -20
15 -29 0 -9 13 -31 28 -50 l28 -33 -53 -54 c-29 -30 -62 -54 -73 -54 -19 0
-20 6 -20 100 0 80 -3 102 -15 106 -8 4 -15 16 -15 28 0 12 -25 45 -60 80 -33
33 -60 63 -60 68 0 4 41 8 90 8 l90 0 0 -33z m172 -297 c18 -16 38 -30 44 -30
6 0 17 -7 24 -15 7 -8 22 -15 34 -15 12 0 31 -7 42 -15 10 -8 38 -15 61 -15
31 0 43 -5 47 -17 7 -25 1 -181 -7 -189 -9 -10 -54 37 -58 61 -3 12 -14 21
-27 23 -13 2 -26 10 -29 18 -3 8 -11 14 -18 14 -7 0 -15 7 -19 15 -3 9 -18 15
-39 15 -19 0 -40 7 -47 15 -9 11 -32 15 -81 15 -69 0 -69 0 -69 28 0 19 9 33
28 46 16 11 37 32 48 48 10 15 22 28 26 28 4 0 22 -13 40 -30z m608 20 c0 -5
16 -25 35 -45 20 -19 40 -35 45 -35 6 0 10 -13 10 -30 l0 -30 -63 0 c-40 0
-70 -5 -83 -15 -10 -8 -34 -15 -52 -15 -20 0 -35 -6 -38 -15 -4 -8 -12 -15
-19 -15 -7 0 -15 -6 -18 -14 -3 -8 -16 -16 -29 -18 -12 -2 -24 -11 -26 -21 -2
-10 -15 -30 -28 -44 l-25 -27 -17 25 c-12 18 -16 40 -13 89 4 90 11 100 70
100 31 0 53 5 61 15 7 8 23 15 37 15 13 0 26 7 29 15 4 8 14 15 23 15 9 0 32
14 51 30 37 31 50 36 50 20z m-795 -142 c22 -26 25 -37 20 -67 -8 -40 -42 -81
-69 -81 -31 0 -86 40 -87 63 -3 52 4 73 27 95 36 32 77 29 109 -10z m1052 6
c20 -27 17 -108 -5 -127 -43 -39 -116 -16 -132 42 -13 48 -14 45 17 81 24 29
31 32 67 27 22 -3 46 -14 53 -23z m-541 -230 c31 -15 34 -20 34 -61 0 -36 -5
-51 -26 -69 -32 -31 -59 -30 -101 2 -28 21 -33 31 -33 66 0 70 53 96 126 62z"/>
<path d="M1787 3353 c-14 -13 -6 -33 13 -33 13 0 20 7 20 20 0 19 -20 27 -33
13z"/>
<path d="M1707 3233 c-11 -10 -8 -41 4 -49 13 -8 29 13 29 39 0 17 -20 23 -33
10z"/>
<path d="M1785 1342 c-57 -2 -76 -8 -105 -30 -19 -15 -48 -34 -64 -43 -16 -8
-39 -35 -52 -59 -13 -24 -29 -47 -35 -51 -6 -4 -14 -30 -17 -58 -2 -28 -9 -54
-13 -57 -14 -8 -10 -86 6 -114 8 -14 14 -38 15 -53 0 -53 121 -180 190 -202
14 -4 31 -13 39 -19 23 -18 172 -14 201 7 13 9 34 17 46 17 32 0 154 108 154
135 0 7 9 20 20 30 13 12 20 31 20 55 0 20 5 41 11 47 7 7 9 29 5 60 -4 26 -9
70 -12 96 -3 27 -12 51 -19 54 -8 2 -23 22 -34 44 -20 38 -55 79 -68 79 -3 0
-27 13 -52 29 -50 31 -108 39 -236 33z m45 -96 c12 -38 -3 -86 -28 -86 -8 0
-31 -13 -52 -30 -30 -24 -48 -30 -84 -30 -60 0 -65 15 -27 73 17 25 31 48 31
53 0 4 10 18 22 31 17 18 32 23 74 23 51 0 53 -1 64 -34z m168 18 c13 -9 28
-26 33 -38 15 -33 36 -67 48 -79 6 -6 11 -19 11 -29 0 -30 -92 -25 -134 7 -18
14 -46 30 -63 35 -25 9 -30 16 -28 43 2 57 20 77 68 77 23 0 53 -7 65 -16z
m-124 -153 c3 -4 18 -11 33 -14 22 -4 32 -16 46 -51 21 -52 18 -70 -23 -115
-24 -27 -37 -34 -77 -36 -45 -4 -50 -1 -85 36 -24 25 -38 51 -38 66 0 40 38
93 71 100 16 3 32 10 35 14 3 5 11 9 19 9 8 0 16 -4 19 -9z m-178 -118 l2 -73
-52 0 c-46 0 -55 3 -74 30 -27 35 -28 63 -4 96 15 21 24 24 71 21 l55 -2 2
-72z m435 55 c25 -31 24 -76 -3 -105 -17 -18 -32 -23 -75 -23 -57 0 -62 6 -43
55 7 18 7 33 -1 46 -19 36 -4 49 52 49 40 0 55 -5 70 -22z m-397 -173 c3 -8
15 -15 26 -15 11 0 33 -9 49 -21 22 -16 27 -28 26 -57 l-1 -37 -74 0 c-68 0
-75 2 -86 23 -6 13 -17 29 -23 35 -6 6 -11 19 -11 29 0 9 -7 21 -16 26 -29 16
-4 32 51 32 38 0 54 -4 59 -15z m352 4 c4 -7 -1 -16 -10 -21 -9 -5 -16 -17
-16 -26 0 -10 -5 -23 -11 -29 -6 -6 -17 -22 -23 -35 -10 -21 -18 -23 -81 -23
l-70 0 -3 34 c-4 39 29 81 64 81 12 0 27 7 34 15 15 18 105 21 116 4z"/>
</g>
</svg>
