<?xml version="1.0" standalone="no"?>
<!DOCTYPE svg PUBLIC "-//W3C//DTD SVG 20010904//EN"
 "http://www.w3.org/TR/2001/REC-SVG-20010904/DTD/svg10.dtd">
<svg version="1.0" xmlns="http://www.w3.org/2000/svg"
 width="549.000000pt" height="610.000000pt" viewBox="0 0 549.000000 408.000000"
 preserveAspectRatio="xMidYMid meet">
<metadata>
Created by potrace 1.10, written by Peter Selinger 2001-2011
</metadata>
  <defs>
   <filter id="glow-effect" x="-50%" y="-50%" width="200%" height="200%">
      <feGaussianBlur in="SourceGraphic" stdDeviation="4" result="blur"/>
      <feFlood flood-color="#FFFAE4" result="color"/>
      <feComposite in="color" in2="blur" operator="in" result="glow"/>
      <feMerge>
        <feMergeNode in="glow"/>
        <feMergeNode in="SourceGraphic"/>
      </feMerge>
    </filter>
  </defs>
  <g transform="translate(.1000,530.000000) scale(0.155000,-0.155000)" fill="#FFFAE4" stroke="none" filter="url(#glow-effect)">

<path d="M2616 3363 c-4 -16 -4 -48 -2 -73 6 -59 -1 -87 -25 -93 -17 -5 -19
-15 -19 -98 0 -73 4 -96 17 -111 16 -18 16 -21 0 -47 -9 -16 -17 -36 -17 -44
0 -8 -7 -20 -15 -27 -8 -7 -15 -23 -15 -35 0 -12 -7 -28 -15 -35 -8 -7 -15
-19 -15 -27 0 -13 -9 -33 -41 -93 -4 -8 -26 -51 -49 -95 -49 -96 -57 -110 -91
-155 -14 -19 -28 -39 -30 -45 -11 -26 -73 -115 -80 -115 -5 0 -9 -5 -9 -11 0
-6 -19 -36 -42 -67 -50 -66 -66 -91 -74 -112 -3 -8 -9 -22 -14 -30 -34 -58
-80 -154 -80 -168 0 -9 -7 -26 -15 -36 -8 -11 -15 -29 -15 -41 0 -12 -7 -30
-15 -41 -8 -10 -15 -29 -15 -40 0 -12 -7 -38 -15 -57 -20 -50 -20 -263 0 -331
8 -27 15 -63 15 -80 0 -17 7 -40 15 -50 8 -11 15 -30 15 -42 0 -12 7 -27 15
-34 8 -7 15 -23 15 -35 0 -13 3 -25 8 -27 4 -1 20 -22 36 -45 71 -105 174
-181 316 -233 42 -15 183 -33 260 -34 96 0 224 16 247 30 12 8 31 14 43 14 36
0 162 74 221 130 53 51 129 151 129 170 0 5 7 23 16 42 40 79 44 91 44 120 0
16 7 54 16 84 28 99 11 333 -32 416 -8 14 -14 35 -14 45 0 11 -7 28 -15 39 -8
10 -15 28 -15 39 -1 11 -19 52 -40 90 -21 39 -49 90 -62 115 -12 25 -48 79
-78 120 -86 115 -196 283 -225 342 -26 53 -36 72 -55 106 -6 9 -13 24 -16 32
-3 8 -12 27 -20 42 -8 14 -14 33 -14 41 0 8 -7 20 -15 27 -8 7 -15 23 -15 35
0 12 -7 28 -15 35 -8 7 -15 20 -15 30 0 10 -7 23 -15 30 -8 7 -15 20 -15 30 0
10 7 23 15 30 11 9 15 35 15 107 0 85 -2 95 -19 100 -23 6 -31 41 -31 129 0
65 -14 86 -24 37z m34 -185 c0 -25 -12 -58 -21 -58 -5 0 -9 16 -9 35 0 24 5
35 15 35 8 0 15 -6 15 -12z m4 -130 c1 -39 -1 -43 -24 -43 -20 0 -26 6 -28 28
-4 35 25 84 41 68 5 -5 11 -30 11 -53z m-7 -145 c3 -10 14 -37 24 -60 11 -23
19 -47 19 -52 0 -6 5 -11 10 -11 6 0 10 -8 10 -18 0 -17 12 -42 112 -232 38
-74 153 -253 183 -286 5 -6 17 -22 25 -34 8 -12 20 -28 25 -34 17 -18 69 -108
95 -163 14 -29 28 -53 32 -53 5 0 8 -8 8 -19 0 -10 6 -24 14 -30 8 -7 17 -30
21 -52 4 -21 11 -39 16 -39 5 0 9 -10 9 -22 0 -13 7 -36 16 -53 8 -16 18 -49
21 -72 3 -24 10 -46 14 -49 12 -7 11 -221 0 -228 -5 -4 -13 -41 -17 -83 -4
-43 -13 -83 -20 -91 -8 -7 -14 -24 -14 -37 0 -13 -4 -26 -9 -29 -5 -3 -12 -18
-16 -33 -16 -64 -151 -202 -246 -251 -35 -17 -71 -32 -79 -32 -8 0 -28 -7 -45
-16 -24 -13 -68 -16 -230 -18 -176 -1 -203 1 -225 17 -13 9 -34 17 -46 17 -19
0 -132 54 -144 69 -3 3 -21 19 -40 35 -41 33 -140 163 -140 183 0 7 -4 21 -9
31 -33 67 -41 95 -47 160 -4 40 -11 75 -15 78 -12 7 -11 221 0 229 6 3 13 26
17 52 4 25 13 58 20 72 8 14 14 36 14 49 0 12 4 22 9 22 5 0 12 15 16 33 7 36
63 155 83 175 6 7 12 22 12 33 0 10 3 19 8 19 4 0 16 16 27 36 17 32 30 50 66
92 6 7 40 57 75 110 35 53 71 106 79 117 9 11 38 65 66 120 28 55 54 107 58
115 35 66 41 80 41 94 0 9 5 16 10 16 6 0 10 5 10 11 0 5 8 29 19 52 10 23 21
50 24 60 4 9 11 17 17 17 6 0 13 -8 17 -17z"/>
<path d="M2595 2033 c-80 -10 -215 -114 -215 -164 0 -10 -4 -19 -9 -19 -5 0
-12 -19 -16 -42 -4 -24 -12 -49 -18 -56 -13 -17 -11 -212 3 -226 5 -5 10 -18
10 -28 0 -25 27 -103 60 -173 15 -33 30 -67 34 -75 3 -8 10 -22 14 -30 11 -18
33 -66 62 -135 12 -27 28 -64 36 -82 8 -17 14 -35 14 -41 0 -5 7 -23 15 -38 8
-16 15 -37 15 -46 0 -13 8 -18 30 -18 22 0 30 5 30 18 1 9 9 35 20 57 11 22
19 50 20 63 0 12 5 22 10 22 6 0 10 7 10 16 0 9 6 28 14 42 8 15 24 47 35 72
24 56 110 239 121 261 5 9 11 37 15 63 4 25 11 49 16 52 25 15 -6 324 -33 324
-4 0 -8 8 -8 18 0 28 -71 99 -132 131 -59 31 -103 41 -153 34z m113 -58 c66
-14 162 -138 162 -209 0 -18 5 -48 12 -66 9 -26 8 -55 -1 -124 -11 -84 -22
-123 -56 -201 -7 -16 -16 -37 -19 -45 -3 -8 -10 -22 -14 -30 -24 -43 -42 -83
-42 -95 0 -7 -7 -18 -15 -25 -8 -7 -15 -23 -15 -35 0 -12 -7 -28 -15 -35 -8
-7 -15 -20 -15 -29 0 -9 -6 -26 -14 -37 -8 -11 -16 -33 -18 -49 -2 -24 -8 -30
-28 -30 -21 0 -26 5 -28 32 -2 17 -10 37 -18 43 -8 7 -14 23 -14 35 0 12 -7
28 -15 35 -8 7 -15 23 -15 35 0 12 -7 28 -15 35 -8 7 -15 17 -15 24 0 6 -13
38 -29 71 -16 33 -32 67 -35 75 -3 8 -10 22 -15 30 -37 64 -67 245 -52 313 6
27 11 63 11 81 0 18 7 41 15 52 8 10 15 26 15 34 1 31 71 92 135 117 30 11 91
11 153 -2z"/>
<path d="M2517 3074 c-4 -4 -7 -45 -7 -91 0 -63 3 -84 13 -81 8 3 13 31 15 83
3 73 -5 105 -21 89z"/>
<path d="M2724 3067 c-10 -27 1 -160 14 -165 9 -3 12 18 12 82 0 78 -12 118
-26 83z"/>
<path d="M2450 2926 c0 -35 -5 -58 -15 -66 -8 -7 -15 -9 -15 -4 0 5 -4 3 -8
-3 -10 -15 8 -133 20 -133 4 0 8 18 8 41 0 32 4 42 20 46 18 5 20 14 20 89 0
68 -3 84 -15 84 -11 0 -15 -13 -15 -54z"/>
<path d="M2780 2896 c0 -75 2 -84 20 -89 16 -4 20 -14 20 -46 0 -56 16 -52 24
5 8 65 8 92 -2 76 -13 -20 -32 32 -32 88 0 38 -4 50 -15 50 -12 0 -15 -16 -15
-84z"/>
<path d="M2360 2690 c0 -50 4 -90 9 -90 16 0 18 11 26 98 7 79 6 82 -14 82
-20 0 -21 -5 -21 -90z"/>
<path d="M2866 2698 c7 -88 10 -98 25 -98 5 0 9 40 9 90 0 84 -1 90 -21 90
-19 0 -20 -4 -13 -82z"/>
<path d="M2304 2676 c-9 -23 0 -141 11 -141 6 0 11 34 13 78 2 50 -1 77 -8 77
-6 0 -13 -6 -16 -14z"/>
<path d="M2932 2613 c4 -98 23 -100 23 -1 0 49 -4 73 -13 76 -10 3 -12 -14
-10 -75z"/>
<path d="M2247 2594 c-4 -4 -7 -20 -7 -34 0 -15 -7 -33 -15 -40 -11 -9 -15
-32 -15 -81 0 -55 3 -69 15 -69 11 0 15 11 15 38 0 42 13 68 28 58 7 -4 8 15
5 56 -5 63 -13 84 -26 72z"/>
<path d="M2996 2593 c-3 -3 -6 -24 -6 -45 0 -22 -5 -48 -10 -59 -9 -16 -7 -21
14 -29 19 -7 25 -17 28 -47 5 -62 23 -43 26 28 2 50 -1 69 -13 79 -8 7 -15 25
-15 41 0 28 -12 44 -24 32z"/>
<path d="M2155 2448 c-9 -24 -1 -143 10 -143 13 0 19 135 6 148 -7 7 -12 5
-16 -5z"/>
<path d="M3085 2448 c-9 -24 -1 -143 10 -143 13 0 19 135 6 148 -7 7 -12 5
-16 -5z"/>
<path d="M2090 2315 c0 -60 3 -75 15 -75 12 0 15 15 15 75 0 60 -3 75 -15 75
-12 0 -15 -15 -15 -75z"/>
<path d="M3140 2315 c0 -60 3 -75 15 -75 12 0 15 15 15 75 0 60 -3 75 -15 75
-12 0 -15 -15 -15 -75z"/>
<path d="M2036 2323 c-3 -3 -6 -28 -6 -54 0 -37 6 -54 25 -76 23 -27 24 -27
25 -6 0 12 -4 25 -10 28 -5 3 -10 28 -10 55 0 46 -9 67 -24 53z"/>
<path d="M3206 2323 c-3 -3 -6 -28 -6 -54 0 -26 -4 -51 -10 -54 -5 -3 -10 -16
-10 -28 1 -21 2 -21 25 6 19 22 25 39 25 77 0 46 -9 67 -24 53z"/>
<path d="M1976 2243 c-11 -11 -6 -58 8 -79 8 -11 16 -30 18 -43 1 -14 9 -26
16 -29 18 -6 15 53 -3 68 -8 7 -15 27 -15 46 0 32 -11 50 -24 37z"/>
<path d="M3266 2243 c-3 -3 -6 -21 -6 -38 0 -18 -7 -38 -15 -45 -17 -14 -21
-74 -4 -68 13 4 39 69 46 114 5 30 -7 51 -21 37z"/>
<path d="M1906 2113 c4 -15 12 -35 19 -43 6 -8 15 -23 18 -32 4 -10 13 -18 21
-18 16 0 11 36 -9 60 -7 8 -15 24 -17 35 -2 11 -11 21 -21 23 -15 3 -17 -1
-11 -25z"/>
<path d="M3324 2123 c-3 -10 -14 -35 -24 -55 -12 -23 -16 -39 -10 -43 12 -8
30 2 30 17 0 6 6 16 14 22 7 6 16 26 20 44 4 24 2 32 -10 32 -8 0 -17 -8 -20
-17z"/>
<path d="M1825 2050 c-3 -6 1 -13 9 -16 9 -3 16 -12 16 -18 0 -14 67 -76 81
-76 19 0 8 19 -39 69 -50 53 -57 57 -67 41z"/>
<path d="M3368 2009 c-49 -53 -57 -69 -35 -69 15 0 97 90 97 107 0 23 -14 14
-62 -38z"/>
<path d="M3424 1949 c-16 -17 -39 -35 -51 -40 -25 -9 -32 -39 -9 -39 22 0 106
71 106 89 0 23 -19 18 -46 -10z"/>
<path d="M1790 1960 c0 -19 84 -90 106 -90 23 0 16 30 -8 39 -13 5 -34 21 -47
35 -25 26 -51 35 -51 16z"/>
<path d="M1765 1877 c-4 -9 1 -23 12 -34 34 -33 76 -63 89 -63 20 0 17 30 -3
37 -10 3 -35 22 -55 41 -30 29 -38 32 -43 19z"/>
<path d="M3449 1854 c-13 -14 -34 -30 -46 -35 -25 -9 -32 -39 -9 -39 22 0 106
71 106 90 0 19 -26 10 -51 -16z"/>
<path d="M1736 1782 c-5 -8 58 -82 70 -82 4 0 16 -8 26 -17 12 -11 22 -13 29
-6 6 6 -10 27 -50 61 -62 54 -67 57 -75 44z"/>
<path d="M3480 1765 c-13 -13 -38 -35 -56 -47 -35 -24 -45 -48 -20 -48 7 0 19
7 26 15 7 8 17 15 22 15 14 0 78 73 72 82 -8 13 -19 9 -44 -17z"/>
<path d="M1726 1661 c-10 -15 79 -81 109 -81 8 0 15 7 15 15 0 8 -6 15 -13 15
-8 0 -33 14 -55 30 -46 33 -48 34 -56 21z"/>
<path d="M3476 1639 c-21 -16 -45 -29 -52 -29 -8 0 -14 -7 -14 -15 0 -8 7 -15
15 -15 30 0 119 66 109 81 -8 13 -15 10 -58 -22z"/>
<path d="M1722 1538 c3 -7 14 -14 26 -16 11 -2 26 -10 32 -18 16 -18 83 -19
78 -1 -3 6 -15 14 -29 15 -13 2 -32 10 -43 18 -26 18 -69 19 -64 2z"/>
<path d="M3474 1536 c-11 -8 -30 -16 -42 -18 -13 -1 -23 -7 -23 -13 0 -16 51
-18 69 -2 10 8 26 17 36 18 11 2 21 10 24 17 5 17 -38 16 -64 -2z"/>
<path d="M1730 1449 c0 -13 41 -48 56 -49 6 0 17 -7 24 -15 7 -8 23 -15 36
-15 15 0 24 6 24 15 0 8 -8 15 -19 15 -10 0 -24 7 -31 15 -7 8 -18 15 -25 15
-7 0 -18 7 -25 15 -14 17 -40 20 -40 4z"/>
<path d="M3493 1449 c-13 -13 -47 -33 -80 -48 -13 -6 -23 -15 -23 -21 0 -16
46 -12 60 5 7 8 18 15 24 15 15 1 56 36 56 49 0 14 -23 14 -37 0z"/>
<path d="M1730 1353 c1 -28 73 -73 116 -73 33 0 27 21 -9 31 -14 4 -39 16 -56
28 -30 21 -51 27 -51 14z"/>
<path d="M3500 1350 c0 -5 -6 -10 -14 -10 -7 0 -19 -6 -26 -14 -6 -8 -23 -16
-37 -18 -36 -4 -43 -28 -9 -28 29 0 95 32 108 52 12 19 10 28 -7 28 -8 0 -15
-4 -15 -10z"/>
<path d="M1746 1241 c-10 -16 59 -51 99 -51 48 0 42 23 -9 31 -20 3 -42 11
-49 18 -13 13 -34 14 -41 2z"/>
<path d="M3470 1236 c-6 -8 -28 -16 -47 -18 -49 -4 -57 -28 -9 -28 38 0 109
36 100 51 -8 14 -30 11 -44 -5z"/>
<path d="M1780 1143 c0 -20 65 -45 110 -41 62 4 56 22 -10 29 -30 4 -65 10
-77 14 -13 4 -23 3 -23 -2z"/>
<path d="M3445 1141 c-6 -6 -34 -11 -63 -13 -66 -4 -73 -22 -9 -26 35 -2 57 2
82 18 19 12 35 24 35 26 0 8 -36 4 -45 -5z"/>
<path d="M1802 1049 c8 -23 50 -39 97 -37 65 4 64 25 -1 31 -29 2 -64 8 -77
12 -18 6 -23 5 -19 -6z"/>
<path d="M3427 1054 c-3 -3 -29 -9 -57 -13 -64 -8 -70 -25 -10 -29 46 -2 90
14 98 36 4 12 -20 17 -31 6z"/>
<path d="M1883 938 c2 -9 26 -13 72 -13 46 0 70 4 73 13 3 9 -16 12 -73 12
-57 0 -76 -3 -72 -12z"/>
<path d="M3233 938 c2 -9 26 -13 72 -13 46 0 70 4 73 13 3 9 -16 12 -73 12
-57 0 -76 -3 -72 -12z"/>
<path d="M1957 854 c-16 -16 10 -24 79 -24 59 0 74 3 74 15 0 12 -15 15 -73
15 -41 0 -77 -3 -80 -6z"/>
<path d="M3150 845 c0 -13 13 -15 77 -13 50 2 78 7 81 16 3 9 -17 12 -77 12
-66 0 -81 -3 -81 -15z"/>
<path d="M2135 788 c-11 -7 -38 -15 -60 -18 -48 -6 -53 -24 -8 -28 36 -4 127
34 118 48 -8 13 -25 12 -50 -2z"/>
<path d="M3075 791 c-9 -16 78 -53 116 -49 45 4 40 21 -8 29 -21 3 -48 10 -60
17 -26 14 -40 15 -48 3z"/>
<path d="M2173 726 c-4 -8 -24 -16 -43 -18 -19 -2 -35 -7 -35 -13 0 -17 45
-17 70 -1 13 9 36 16 50 16 16 0 25 6 25 15 0 20 -56 20 -67 1z"/>
<path d="M3020 725 c0 -10 10 -15 29 -15 16 0 34 -7 41 -16 8 -9 25 -14 44
-12 41 4 40 22 -1 26 -17 2 -37 10 -43 18 -17 19 -70 19 -70 -1z"/>
<path d="M2250 696 c-6 -8 -21 -16 -33 -18 -12 -2 -23 -11 -25 -21 -3 -15 1
-17 25 -11 15 4 35 12 43 19 8 6 23 15 33 18 10 4 15 11 12 17 -9 15 -41 12
-55 -4z"/>
<path d="M2960 696 c0 -7 8 -16 18 -20 9 -3 24 -9 32 -14 59 -35 78 -35 59 -1
-5 11 -18 19 -28 19 -10 0 -24 7 -31 15 -16 19 -50 20 -50 1z"/>
<path d="M2339 669 c-19 -17 -44 -38 -56 -46 -23 -15 -22 -33 1 -33 17 0 106
83 106 98 0 19 -14 14 -51 -19z"/>
<path d="M2870 688 c0 -15 89 -98 106 -98 23 0 24 18 1 33 -12 8 -37 29 -56
46 -37 33 -51 38 -51 19z"/>
<path d="M2415 643 c-10 -14 -29 -37 -43 -50 -20 -18 -22 -24 -9 -29 15 -6 70
43 95 85 11 18 10 21 -7 21 -10 0 -27 -12 -36 -27z"/>
<path d="M2802 649 c28 -46 77 -91 94 -85 14 5 13 9 -8 29 -14 13 -33 36 -43
50 -9 15 -26 27 -36 27 -17 0 -18 -3 -7 -21z"/>
<path d="M2487 643 c-4 -3 -7 -14 -7 -24 0 -10 -6 -22 -12 -26 -17 -11 -38
-49 -38 -70 0 -14 4 -13 25 7 14 13 25 30 25 37 0 8 7 16 15 19 9 4 15 19 15
35 0 28 -9 37 -23 22z"/>
<path d="M2750 630 c0 -23 38 -88 64 -109 27 -22 20 16 -9 55 -14 18 -25 42
-25 53 0 12 -7 21 -15 21 -8 0 -15 -9 -15 -20z"/>
<path d="M2540 613 c0 -14 -6 -34 -14 -42 -7 -9 -17 -26 -20 -38 -13 -40 20
-27 43 17 25 48 28 90 6 90 -10 0 -15 -10 -15 -27z"/>
<path d="M2614 581 c1 -34 6 -64 10 -68 15 -15 27 18 24 68 -2 42 -7 55 -20
57 -15 3 -17 -4 -14 -57z"/>
<path d="M2690 615 c0 -33 39 -105 57 -105 17 0 9 35 -13 61 -8 8 -14 28 -14
42 0 17 -5 27 -15 27 -9 0 -15 -9 -15 -25z"/>
</g>
</svg>
