<?xml version="1.0" standalone="no"?>
<!DOCTYPE svg PUBLIC "-//W3C//DTD SVG 20010904//EN" "http://www.w3.org/TR/2001/REC-SVG-20010904/DTD/svg10.dtd">
<svg version="1.0" xmlns="http://www.w3.org/2000/svg" width="372.000000pt" height="408.000000pt" viewBox="0 0 372.000000 408.000000" preserveAspectRatio="xMidYMid meet">
  <metadata>
    Created by potrace 1.10, written by Peter Selinger 2001-2011
  </metadata>
  <defs>
   <filter id="glow-effect" x="-50%" y="-50%" width="200%" height="200%">
      <feGaussianBlur in="SourceGraphic" stdDeviation="4" result="blur"/>
      <feFlood flood-color="#FFFAE4" result="color"/>
      <feComposite in="color" in2="blur" operator="in" result="glow"/>
      <feMerge>
        <feMergeNode in="glow"/>
        <feMergeNode in="SourceGraphic"/>
      </feMerge>
    </filter>
  </defs>
  <g transform="translate(.133000,420.000000) scale(0.114000,-0.114000)" fill="#FFFAE4" stroke="none" filter="url(#glow-effect)">
<path d="M1795 3821 c-6 -11 9 -23 19 -14 9 9 7 23 -3 23 -6 0 -12 -4 -16 -9z"/>
<path d="M1700 3785 c0 -16 9 -19 34 -9 20 8 11 24 -15 24 -10 0 -19 -7 -19
-15z"/>
<path d="M1820 3656 c0 -13 -7 -29 -15 -36 -8 -7 -15 -21 -15 -32 0 -10 -7
-21 -15 -24 -8 -4 -15 -17 -15 -30 0 -14 -7 -27 -15 -30 -8 -4 -15 -17 -15
-30 0 -14 -7 -27 -15 -30 -8 -4 -15 -18 -15 -34 0 -16 -7 -35 -15 -44 -8 -8
-15 -24 -15 -35 0 -11 -7 -26 -15 -35 -9 -8 -15 -33 -15 -58 0 -24 -7 -53 -15
-64 -12 -16 -14 -134 -15 -836 l0 -818 -23 0 c-13 0 -38 -7 -55 -16 -47 -23
-66 -16 -70 28 -6 69 -110 157 -153 130 -10 -7 -25 -12 -33 -12 -14 0 -38 -22
-73 -64 -29 -35 -4 -133 41 -166 12 -8 37 -17 56 -20 l35 -5 -4 -80 c-4 -89
-37 -167 -92 -218 l-31 -28 -34 35 c-51 53 -95 50 -159 -7 l-48 -44 5 -59 c4
-66 20 -88 78 -118 37 -18 66 -21 74 -7 3 5 18 12 33 16 15 3 33 14 40 23 12
15 16 13 48 -23 65 -73 81 -106 90 -192 5 -54 3 -65 -15 -83 -11 -11 -29 -20
-40 -20 -11 0 -35 -15 -55 -34 -31 -30 -35 -40 -35 -84 0 -45 4 -55 39 -90 37
-38 42 -39 98 -38 56 1 62 3 96 41 23 25 37 50 37 66 0 15 6 32 14 38 14 12
73 5 82 -10 3 -5 18 -9 33 -9 15 0 38 -9 51 -20 13 -11 27 -20 32 -20 16 0 88
-64 88 -79 0 -8 -8 -23 -17 -33 -10 -11 -18 -41 -21 -76 -4 -56 -3 -58 37 -95
67 -62 120 -62 185 -1 l39 36 -6 66 c-3 45 -10 68 -21 74 -26 15 -18 42 21 74
56 45 88 62 130 70 21 4 43 10 49 15 6 5 26 10 45 11 31 3 34 0 37 -26 2 -16
11 -41 20 -55 35 -53 54 -65 113 -69 56 -4 58 -3 98 37 40 41 46 58 42 114 -3
33 -63 97 -91 97 -11 0 -29 9 -40 20 -16 16 -18 28 -13 72 3 29 9 55 13 58 4
3 10 20 13 39 6 28 39 78 89 136 5 5 20 -3 38 -23 25 -28 36 -32 77 -32 41 0
54 5 86 35 20 18 37 38 37 42 0 4 7 20 14 35 9 16 11 30 5 33 -5 4 -9 15 -9
26 0 11 -20 41 -44 66 -44 45 -46 46 -93 39 -32 -4 -56 -15 -76 -34 l-28 -27
-35 40 c-50 58 -51 58 -59 96 -4 19 -11 36 -15 39 -4 3 -10 33 -11 68 -4 67 4
82 46 82 24 0 75 44 75 65 0 7 5 15 12 17 6 2 12 22 13 44 1 32 -5 46 -34 77
-35 37 -82 67 -106 67 -50 0 -132 -83 -137 -137 -3 -37 -4 -38 -38 -35 -19 2
-39 8 -45 13 -5 5 -22 9 -37 9 l-28 0 0 818 c-1 702 -3 820 -15 836 -8 11 -15
41 -15 67 0 29 -6 51 -15 59 -8 7 -15 22 -15 34 0 11 -7 30 -15 40 -8 11 -15
30 -15 42 0 12 -7 24 -15 28 -8 3 -15 16 -15 30 0 13 -7 26 -15 30 -8 3 -15
16 -15 30 0 13 -7 26 -15 30 -8 3 -15 16 -15 30 0 13 -7 26 -15 30 -8 3 -15
17 -15 31 0 21 -5 25 -30 25 -25 0 -30 -4 -30 -24z m40 -100 c0 -15 7 -26 20
-29 14 -4 20 -14 20 -35 0 -17 -6 -33 -12 -36 -7 -4 -3 -4 10 -2 15 3 25 -1
29 -12 3 -9 11 -23 16 -30 20 -25 68 -179 77 -247 6 -38 12 -407 13 -820 2
-412 7 -758 12 -769 7 -16 5 -17 -16 -11 -13 4 -26 9 -29 12 -2 2 -4 329 -5
726 0 735 -2 776 -38 828 -10 13 -17 33 -17 45 0 12 -7 24 -15 28 -8 3 -15 14
-15 24 0 11 -7 25 -15 32 -8 7 -15 19 -15 26 0 25 -47 16 -66 -13 -28 -42 -63
-116 -64 -134 0 -8 -4 -19 -9 -25 -4 -5 -16 -33 -25 -61 -15 -47 -16 -123 -15
-730 1 -373 5 -690 10 -705 5 -20 3 -31 -10 -42 -10 -9 -22 -16 -27 -16 -9 0
-9 637 -1 1371 3 256 6 299 20 320 10 13 17 31 17 40 0 9 7 22 15 29 8 7 15
19 15 27 0 28 98 233 111 233 5 0 9 -11 9 -24z m18 -355 c2 -13 10 -31 18 -38
8 -8 14 -23 14 -34 0 -11 7 -30 15 -42 12 -19 15 -112 15 -616 1 -326 -1 -595
-3 -597 -3 -3 -23 2 -45 11 -36 15 -43 15 -77 1 -21 -9 -41 -16 -46 -16 -5 0
-9 261 -9 596 0 475 3 601 13 622 8 15 21 42 30 60 9 19 17 42 17 51 0 24 10
32 35 29 12 -2 21 -12 23 -27z m39 -1373 c35 -32 33 -109 -3 -137 -36 -29 -93
-28 -127 2 -36 30 -38 98 -4 133 30 32 101 33 134 2z m53 -178 c0 -11 -4 -20
-9 -20 -11 0 -22 26 -14 34 12 12 23 5 23 -14z m-146 -28 c-1 -6 -2 -32 -2
-56 -2 -35 -6 -46 -22 -51 -49 -16 -61 46 -21 102 17 24 47 27 45 5z m97 -5
c9 -12 19 -36 22 -54 8 -39 -8 -51 -57 -45 l-34 4 4 50 c2 27 6 54 10 59 10
16 39 9 55 -14z m-551 -17 c44 -23 47 -117 4 -145 -56 -36 -114 -7 -120 62 -4
47 17 80 53 86 16 2 32 5 36 6 5 0 17 -3 27 -9z m1070 -19 c14 -27 13 -84 -2
-104 -7 -9 -29 -23 -49 -31 -35 -15 -38 -14 -63 7 -20 18 -26 32 -26 65 0 69
12 82 75 82 43 0 56 -4 65 -19z m-722 -82 c11 -17 20 -20 46 -16 36 6 66 -6
47 -18 -7 -4 -18 -5 -25 -2 -7 3 -20 -3 -29 -14 -24 -27 -83 -26 -98 2 -8 16
-8 27 2 45 15 30 40 31 57 3z m315 -3 c24 -36 12 -66 -27 -66 -17 0 -44 7 -60
15 -15 8 -37 15 -47 15 -21 0 -37 19 -17 21 7 1 27 0 44 -1 18 -1 40 7 55 19
31 26 34 26 52 -3z m-425 -61 c3 -38 -1 -52 -19 -71 -32 -34 -46 -30 -96 21
-23 25 -47 45 -53 45 -5 0 -10 7 -10 15 0 12 14 15 64 15 45 0 67 4 76 15 21
26 35 11 38 -40z m523 39 c10 -12 27 -15 70 -12 32 1 61 0 65 -4 9 -9 -99
-118 -117 -118 -7 0 -23 10 -36 22 -18 17 -23 32 -23 75 0 56 14 69 41 37z
m180 -61 c9 -10 14 -44 14 -97 1 -45 6 -90 12 -101 6 -11 14 -27 18 -35 19
-47 77 -120 95 -120 16 0 11 -37 -6 -44 -8 -3 -24 -1 -34 4 -11 6 -39 9 -62 8
-41 -3 -43 -2 -46 27 -2 17 -10 44 -18 62 -7 17 -14 40 -14 51 0 11 -7 22 -15
26 -8 3 -15 16 -15 28 -1 13 -14 34 -30 48 -17 13 -30 28 -30 33 0 10 101 125
111 126 4 1 13 -6 20 -16z m-846 -47 c30 -30 55 -58 55 -63 0 -5 -13 -20 -30
-33 -16 -14 -29 -35 -30 -48 0 -12 -7 -25 -15 -28 -8 -4 -15 -18 -15 -33 0
-15 -6 -36 -14 -47 -8 -11 -16 -37 -18 -58 l-3 -38 -83 -2 c-46 -1 -85 1 -87
4 -2 3 23 32 56 64 32 32 59 64 59 71 0 8 8 21 17 31 14 13 18 38 19 118 1 56
3 104 3 109 3 20 37 2 86 -47z m484 36 c30 -5 57 -14 59 -20 2 -7 12 -12 21
-12 10 0 26 -9 36 -20 10 -11 22 -20 27 -20 18 0 118 -123 118 -146 0 -8 4
-14 9 -14 4 0 11 -19 14 -43 3 -24 13 -56 21 -72 21 -39 20 -59 -4 -128 -11
-31 -20 -66 -20 -77 0 -11 -4 -20 -10 -20 -5 0 -10 -10 -10 -21 0 -46 -156
-179 -210 -179 -8 0 -24 -6 -35 -14 -30 -20 -124 -29 -176 -16 -24 7 -58 14
-76 17 -17 3 -39 14 -49 24 -9 10 -24 19 -32 19 -23 0 -132 115 -132 140 0 11
-7 23 -15 26 -8 4 -15 18 -15 33 0 14 -7 38 -14 53 -27 52 -30 111 -7 161 12
25 21 60 21 76 0 17 5 31 10 31 6 0 10 5 10 10 0 6 17 32 38 59 61 78 165 150
219 152 16 0 37 5 48 10 20 9 50 7 154 -9z m-804 -337 c42 -33 51 -67 28 -105
-16 -27 -22 -30 -68 -30 -38 0 -55 5 -68 20 -28 33 -22 76 16 110 39 36 50 37
92 5z m1498 0 c31 -22 37 -31 37 -62 0 -78 -84 -112 -143 -58 -40 38 -36 76
10 114 21 17 42 31 48 31 6 0 27 -11 48 -25z m-1245 -124 c2 -19 10 -44 18
-55 8 -11 14 -32 14 -47 0 -15 7 -32 15 -39 8 -7 15 -17 15 -22 0 -5 11 -24
25 -42 26 -34 32 -56 15 -56 -5 0 -29 -20 -52 -45 -66 -70 -74 -64 -73 55 0
64 -4 103 -11 108 -6 4 -15 18 -19 32 -4 14 -34 50 -66 80 -33 31 -59 59 -59
63 0 4 39 6 88 5 l87 -3 3 -34z m1082 24 c0 -8 -4 -15 -8 -15 -14 0 -92 -80
-92 -95 0 -8 -4 -15 -8 -15 -22 0 -47 -88 -47 -165 0 -75 -1 -80 -22 -83 -13
-2 -23 1 -23 7 0 12 -42 55 -76 77 l-24 16 30 38 c17 21 30 42 30 48 0 5 7 15
15 22 8 7 15 25 15 40 0 15 7 33 15 40 8 7 15 29 15 50 0 20 3 40 7 43 3 4 44
7 90 7 67 0 83 -3 83 -15z m-867 -345 c10 0 20 -7 23 -15 4 -8 16 -15 28 -15
12 0 31 -6 42 -14 11 -8 40 -16 65 -18 l44 -3 3 -103 c3 -116 -7 -128 -43 -54
-11 23 -29 44 -39 48 -11 3 -24 10 -30 15 -6 5 -22 18 -35 29 -13 11 -36 20
-51 20 -14 0 -31 5 -38 12 -7 7 -39 11 -82 10 -62 -1 -70 1 -70 18 0 10 24 43
53 73 l52 53 30 -28 c17 -15 39 -28 48 -28z m655 -68 c-3 -14 -15 -17 -70 -17
-40 0 -72 -5 -79 -12 -7 -7 -27 -13 -44 -13 -17 0 -38 -8 -47 -17 -26 -28 -43
-40 -66 -47 -12 -4 -22 -12 -22 -18 0 -6 -10 -26 -21 -45 l-21 -34 -24 22
c-18 17 -21 26 -14 40 6 10 10 39 10 64 0 71 12 85 69 85 31 0 53 5 61 15 7 8
23 15 35 15 13 0 25 7 29 15 3 8 14 15 24 15 10 0 31 13 46 29 l27 28 55 -54
c33 -32 54 -61 52 -71z m-883 -24 c20 -24 25 -39 21 -60 -10 -49 -37 -77 -75
-78 -98 -1 -113 134 -18 162 38 11 45 9 72 -24z m1048 4 c26 -23 23 -95 -5
-122 -31 -29 -85 -24 -109 10 -32 45 -33 73 -4 109 24 28 31 31 64 25 20 -4
44 -13 54 -22z m-529 -233 c37 -29 36 -85 -2 -122 -36 -34 -59 -34 -99 3 -85
77 11 190 101 119z"/>
<path d="M1792 3341 c2 -7 7 -12 11 -12 12 1 9 15 -3 20 -7 2 -11 -2 -8 -8z"/>
<path d="M1907 3344 c-8 -8 1 -24 14 -24 5 0 9 7 9 15 0 15 -12 20 -23 9z"/>
<path d="M1710 3209 c0 -11 5 -17 10 -14 6 3 10 13 10 21 0 8 -4 14 -10 14 -5
0 -10 -9 -10 -21z"/>
<path d="M1700 1322 c-14 -9 -28 -21 -31 -25 -7 -10 -47 -34 -71 -43 -10 -3
-18 -12 -18 -19 0 -6 -13 -31 -30 -53 -21 -30 -30 -53 -30 -81 0 -22 -6 -44
-15 -51 -19 -16 -19 -80 0 -106 8 -10 15 -38 15 -60 0 -28 5 -44 15 -48 8 -3
15 -11 15 -17 0 -17 132 -139 150 -139 8 0 28 -7 45 -16 42 -22 180 -22 204 0
10 9 29 16 42 16 14 0 38 13 55 28 16 16 37 31 47 35 9 4 22 18 27 32 5 14 14
25 19 25 5 0 12 11 15 25 4 14 11 25 16 25 6 0 10 17 10 38 0 21 7 47 15 58
19 25 19 74 0 110 -8 16 -15 46 -15 67 0 26 -4 37 -15 37 -8 0 -15 9 -15 20 0
11 -4 20 -9 20 -5 0 -13 10 -17 23 -8 27 -32 45 -122 95 -36 19 -55 22 -159
21 -93 0 -123 -4 -143 -17z m124 -64 c15 -58 1 -98 -34 -98 -9 0 -29 -13 -45
-30 -25 -26 -36 -30 -82 -30 -64 0 -68 13 -23 70 17 21 30 44 30 51 0 7 10 23
22 36 17 18 32 23 74 23 45 0 52 -3 58 -22z m180 1 c14 -11 26 -29 26 -39 0
-10 7 -20 15 -24 8 -3 15 -12 15 -19 0 -8 7 -20 15 -27 8 -7 15 -21 15 -31 0
-16 -8 -19 -51 -19 -40 0 -57 6 -87 29 -20 16 -46 31 -57 33 -23 4 -30 33 -20
84 6 33 7 34 54 34 34 0 56 -6 75 -21z m-404 -84 c0 -8 -4 -15 -10 -15 -5 0
-10 7 -10 15 0 8 5 15 10 15 6 0 10 -7 10 -15z m546 -61 c-5 -13 -10 -14 -18
-6 -6 6 -8 18 -4 28 5 13 10 14 18 6 6 -6 8 -18 4 -28z m-571 -4 c-5 -8 -11
-8 -17 -2 -6 6 -7 16 -3 22 5 8 11 8 17 2 6 -6 7 -16 3 -22z m300 0 c3 -5 17
-10 30 -10 18 0 28 -10 44 -43 28 -59 27 -73 -15 -123 -33 -41 -39 -44 -84
-44 -43 0 -51 4 -84 40 -40 45 -44 72 -18 125 11 24 26 38 45 42 15 3 30 10
33 14 7 12 41 11 49 -1z m-180 -117 l2 -73 -59 0 c-43 0 -58 4 -58 14 0 7 -7
19 -15 26 -20 17 -19 66 3 89 13 16 29 19 71 18 l53 -2 3 -72z m435 57 c25
-25 26 -78 1 -107 -16 -19 -29 -23 -75 -23 -61 0 -66 7 -44 55 8 19 8 31 -1
51 -16 36 -7 44 50 44 36 0 54 -5 69 -20z m-552 -178 c2 -7 -3 -12 -12 -12 -9
0 -16 7 -16 16 0 17 22 14 28 -4z m152 3 c7 -8 22 -15 34 -15 31 0 64 -39 68
-80 l3 -35 -75 0 c-68 0 -75 2 -86 23 -6 13 -17 29 -23 35 -6 6 -11 19 -11 29
0 10 -7 21 -15 24 -8 4 -15 12 -15 20 0 20 103 19 120 -1z m360 1 c0 -8 -7
-16 -15 -20 -8 -3 -15 -14 -15 -24 0 -10 -5 -23 -11 -29 -6 -6 -17 -22 -23
-35 -10 -21 -18 -23 -81 -23 l-70 0 -3 34 c-4 39 29 81 64 81 12 0 27 7 34 15
17 20 120 21 120 1z m60 -1 c0 -8 -7 -15 -15 -15 -8 0 -15 7 -15 15 0 8 7 15
15 15 8 0 15 -7 15 -15z m-255 -174 c8 -14 -31 -23 -67 -16 -22 5 -27 9 -17
16 19 12 76 11 84 0z"/>
<path d="M2816 1074 c-4 -9 -4 -19 -2 -21 8 -8 26 8 26 23 0 19 -16 18 -24 -2z"/>
<path d="M2840 755 c0 -8 7 -15 15 -15 8 0 15 7 15 15 0 8 -7 15 -15 15 -8 0
-15 -7 -15 -15z"/>
<path d="M1115 750 c3 -5 15 -10 25 -10 10 0 22 5 25 10 4 6 -7 10 -25 10 -18
0 -29 -4 -25 -10z"/>
<path d="M2786 745 c-3 -9 1 -18 10 -22 21 -8 25 -1 9 20 -11 15 -13 16 -19 2z"/>
<path d="M2575 701 c-6 -11 9 -23 19 -14 9 9 7 23 -3 23 -6 0 -12 -4 -16 -9z"/>
<path d="M1577 314 c-8 -8 1 -24 14 -24 5 0 9 7 9 15 0 15 -12 20 -23 9z"/>
<path d="M2170 270 c0 -5 7 -10 15 -10 8 0 15 5 15 10 0 6 -7 10 -15 10 -8 0
-15 -4 -15 -10z"/>
<path d="M2036 42 c-3 -6 -1 -14 5 -17 15 -10 25 3 12 16 -7 7 -13 7 -17 1z"/>
</g>
</svg>
